{
	"asset":{
		"generator":"Khronos glTF Blender I/O v3.5.30",
		"version":"2.0"
	},
	"extensionsUsed":[
		"KHR_materials_unlit"
	],
	"scene":0,
	"scenes":[
		{
			"name":"Scene",
			"nodes":[
				0
			]
		}
	],
	"nodes":[
		{
			"mesh":0,
			"name":"SwoleDachi.002",
			"scale":[
				5,
				5,
				5
			]
		}
	],
	"animations":[
		{
			"channels":[
				{
					"sampler":0,
					"target":{
						"node":0,
						"path":"translation"
					}
				},
				{
					"sampler":1,
					"target":{
						"node":0,
						"path":"rotation"
					}
				},
				{
					"sampler":2,
					"target":{
						"node":0,
						"path":"scale"
					}
				}
			],
			"name":"SwoleDachi.002",
			"samplers":[
				{
					"input":7,
					"interpolation":"LINEAR",
					"output":8
				},
				{
					"input":7,
					"interpolation":"LINEAR",
					"output":9
				},
				{
					"input":7,
					"interpolation":"LINEAR",
					"output":10
				}
			]
		}
	],
	"materials":[
		{
			"doubleSided":true,
			"extensions":{
				"KHR_materials_unlit":{}
			},
			"name":"TakoMat",
			"pbrMetallicRoughness":{
				"baseColorTexture":{
					"index":0,
					"texCoord":0
				},
				"metallicFactor":0,
				"roughnessFactor":0.9
			}
		}
	],
	"meshes":[
		{
			"name":"Cube.008",
			"primitives":[
				{
					"attributes":{
						"POSITION":0,
						"TEXCOORD_0":1,
						"NORMAL":2,
						"TANGENT":3
					},
					"indices":4,
					"material":0
				},
				{
					"attributes":{
						"POSITION":5
					},
					"indices":6,
					"material":0,
					"mode":1
				}
			]
		}
	],
	"textures":[
		{
			"sampler":0,
			"source":0
		}
	],
	"images":[
		{
			"bufferView":5,
			"mimeType":"image/png",
			"name":"TakoTexture"
		}
	],
	"accessors":[
		{
			"bufferView":0,
			"componentType":5126,
			"count":15169,
			"max":[
				0.558582067489624,
				1.4816045761108398,
				0.21442811191082
			],
			"min":[
				-0.5083922743797302,
				-0.007660131435841322,
				-0.47498247027397156
			],
			"type":"VEC3"
		},
		{
			"bufferView":1,
			"componentType":5126,
			"count":15169,
			"type":"VEC2"
		},
		{
			"bufferView":2,
			"componentType":5126,
			"count":15169,
			"type":"VEC3"
		},
		{
			"bufferView":3,
			"componentType":5126,
			"count":15169,
			"type":"VEC4"
		},
		{
			"bufferView":4,
			"componentType":5123,
			"count":84828,
			"type":"SCALAR"
		},
		{
			"bufferView":6,
			"componentType":5126,
			"count":2,
			"max":[
				-0.1959981769323349,
				1.0444625616073608,
				-0.06313901394605637
			],
			"min":[
				-0.1967693418264389,
				0.9646086096763611,
				-0.1055794358253479
			],
			"type":"VEC3"
		},
		{
			"bufferView":7,
			"componentType":5123,
			"count":2,
			"type":"SCALAR"
		},
		{
			"bufferView":8,
			"componentType":5126,
			"count":121,
			"max":[
				5
			],
			"min":[
				0
			],
			"type":"SCALAR"
		},
		{
			"bufferView":9,
			"componentType":5126,
			"count":121,
			"type":"VEC3"
		},
		{
			"bufferView":10,
			"componentType":5126,
			"count":121,
			"type":"VEC4"
		},
		{
			"bufferView":11,
			"componentType":5126,
			"count":121,
			"type":"VEC3"
		}
	],
	"bufferViews":[
		{
			"buffer":0,
			"byteLength":182028,
			"byteOffset":0,
			"target":34962
		},
		{
			"buffer":0,
			"byteLength":121352,
			"byteOffset":182028,
			"target":34962
		},
		{
			"buffer":0,
			"byteLength":182028,
			"byteOffset":303380,
			"target":34962
		},
		{
			"buffer":0,
			"byteLength":242704,
			"byteOffset":485408,
			"target":34962
		},
		{
			"buffer":0,
			"byteLength":169656,
			"byteOffset":728112,
			"target":34963
		},
		{
			"buffer":0,
			"byteLength":258837,
			"byteOffset":897768
		},
		{
			"buffer":0,
			"byteLength":24,
			"byteOffset":1156608,
			"target":34962
		},
		{
			"buffer":0,
			"byteLength":4,
			"byteOffset":1156632,
			"target":34963
		},
		{
			"buffer":0,
			"byteLength":484,
			"byteOffset":1156636
		},
		{
			"buffer":0,
			"byteLength":1452,
			"byteOffset":1157120
		},
		{
			"buffer":0,
			"byteLength":1936,
			"byteOffset":1158572
		},
		{
			"buffer":0,
			"byteLength":1452,
			"byteOffset":1160508
		}
	],
	"samplers":[
		{
			"magFilter":9729,
			"minFilter":9987
		}
	],
	"buffers":[
		{
			"byteLength":1161960,
			"uri":"data:application/octet-stream;base64,"
		}
	]
}
